<?xml version="1.0" encoding="utf-8"?>
<!-- Generator: Adobe Illustrator 28.4.1, SVG Export Plug-In . SVG Version: 6.00 Build 0)  -->
<svg version="1.1" id="Capa_1" xmlns="http://www.w3.org/2000/svg" xmlns:xlink="http://www.w3.org/1999/xlink" x="0px" y="0px"
	 viewBox="0 0 4096 4096" style="enable-background:new 0 0 4096 4096;" xml:space="preserve">
<style type="text/css">
	.st0{fill:#918B9D;}
	.st1{fill:#DACFE8;}
	.st2{fill:#F9F5FA;}
	.st3{fill:#491010;}
	.st4{fill:#7C170F;}
	.st5{fill:#B31917;}
	.st6{fill:#135EAA;}
	.st7{fill:#1CADE4;}
	.st8{fill:#78CBE5;}
	.st9{fill:#E5261F;}
	.st10{fill:#F38F1C;}
	.st11{fill:#F4DB2A;}
	.st12{fill:#4D4A53;}
	.st13{fill:#39363D;}
	.st14{fill:#FFF9D1;}
	.st15{fill:#020203;}
	.st16{fill:#3271B8;}
</style>
<g>
	<rect x="3967.94" y="2620.51" class="st0" width="128.06" height="145.58"/>
	<rect x="3967.94" y="2474.92" class="st0" width="128.06" height="145.59"/>
	<rect x="3967.94" y="2329.34" class="st0" width="128.06" height="145.58"/>
	<rect x="3967.94" y="2183.76" class="st0" width="128.06" height="145.59"/>
	<rect x="3967.94" y="2038.18" class="st0" width="128.06" height="145.58"/>
	<rect x="3967.94" y="1892.6" class="st0" width="128.06" height="145.59"/>
	<rect x="3967.94" y="1747.02" class="st0" width="128.06" height="145.58"/>
	<rect x="3967.94" y="1601.43" class="st0" width="128.06" height="145.59"/>
	<rect x="3839.88" y="2766.09" class="st0" width="128.06" height="145.58"/>
	<rect x="3839.88" y="2620.51" class="st1" width="128.06" height="145.58"/>
	<rect x="3839.88" y="2474.92" class="st1" width="128.06" height="145.59"/>
	<rect x="3839.88" y="2329.34" class="st1" width="128.06" height="145.58"/>
	<rect x="3839.88" y="2183.76" class="st1" width="128.06" height="145.59"/>
	<rect x="3839.88" y="2038.18" class="st1" width="128.06" height="145.58"/>
	<rect x="3839.88" y="1892.6" class="st1" width="128.06" height="145.59"/>
	<rect x="3839.88" y="1747.02" class="st1" width="128.06" height="145.58"/>
	<rect x="3839.88" y="1601.43" class="st1" width="128.06" height="145.59"/>
	<rect x="3839.88" y="1455.85" class="st1" width="128.06" height="145.58"/>
	<rect x="3839.88" y="1310.27" class="st1" width="128.06" height="145.59"/>
	<rect x="3839.88" y="1164.69" class="st1" width="128.06" height="145.58"/>
	<rect x="3839.88" y="1019.1" class="st1" width="128.06" height="145.59"/>
	<rect x="3839.88" y="873.52" class="st0" width="128.06" height="145.58"/>
	<rect x="3711.81" y="2620.51" class="st2" width="128.07" height="145.58"/>
	<rect x="3711.81" y="2474.92" class="st2" width="128.07" height="145.59"/>
	<rect x="3711.81" y="2329.34" class="st2" width="128.07" height="145.58"/>
	<rect x="3711.81" y="2183.76" class="st2" width="128.07" height="145.59"/>
	<rect x="3711.81" y="2038.18" class="st2" width="128.07" height="145.58"/>
	<rect x="3711.81" y="1892.6" class="st2" width="128.07" height="145.59"/>
	<rect x="3711.81" y="1747.02" class="st2" width="128.07" height="145.58"/>
	<rect x="3711.81" y="1601.43" class="st2" width="128.07" height="145.59"/>
	<rect x="3583.75" y="2474.92" class="st0" width="128.06" height="145.59"/>
	<rect x="3583.75" y="2329.34" class="st1" width="128.06" height="145.58"/>
	<rect x="3583.75" y="2183.76" class="st1" width="128.06" height="145.59"/>
	<rect x="3455.68" y="2474.92" class="st0" width="128.07" height="145.59"/>
	<rect x="3455.68" y="2329.34" class="st1" width="128.07" height="145.58"/>
	<rect x="3455.68" y="2183.76" class="st1" width="128.07" height="145.59"/>
	<rect x="3455.68" y="2038.18" class="st2" width="128.07" height="145.58"/>
	<rect x="3327.62" y="2474.92" class="st3" width="128.06" height="145.59"/>
	<rect x="3327.62" y="2329.34" class="st4" width="128.06" height="145.58"/>
	<rect x="3327.62" y="2183.76" class="st4" width="128.06" height="145.59"/>
	<rect x="3327.62" y="2038.18" class="st5" width="128.06" height="145.58"/>
	<rect x="3199.53" y="2474.92" class="st6" width="128.09" height="145.59"/>
	<rect x="3199.53" y="2329.34" class="st7" width="128.09" height="145.58"/>
	<rect x="3199.53" y="2183.76" class="st7" width="128.09" height="145.59"/>
	<rect x="3199.53" y="2038.18" class="st8" width="128.09" height="145.58"/>
	<rect x="3071.49" y="2474.92" class="st3" width="128.04" height="145.59"/>
	<rect x="3071.49" y="2329.34" class="st4" width="128.04" height="145.58"/>
	<rect x="3071.49" y="2183.76" class="st4" width="128.04" height="145.59"/>
	<rect x="3071.49" y="2038.18" class="st4" width="128.04" height="145.58"/>
	<rect x="3071.49" y="1892.6" class="st5" width="128.04" height="145.59"/>
	<rect x="2943.4" y="2474.92" class="st0" width="128.09" height="145.59"/>
	<rect x="2943.4" y="2329.34" class="st1" width="128.09" height="145.58"/>
	<rect x="2943.4" y="2183.76" class="st1" width="128.09" height="145.59"/>
	<rect x="2943.4" y="2038.18" class="st1" width="128.09" height="145.58"/>
	<rect x="2943.4" y="1892.6" class="st2" width="128.09" height="145.59"/>
	<rect x="2815.34" y="3639.61" class="st4" width="128.06" height="145.58"/>
	<rect x="2815.34" y="3494.03" class="st9" width="128.06" height="145.59"/>
	<rect x="2815.34" y="3348.45" class="st10" width="128.06" height="145.58"/>
	<rect x="2815.34" y="2474.92" class="st0" width="128.06" height="145.59"/>
	<rect x="2815.34" y="2329.34" class="st1" width="128.06" height="145.58"/>
	<rect x="2815.34" y="2183.76" class="st1" width="128.06" height="145.59"/>
	<rect x="2815.34" y="2038.18" class="st1" width="128.06" height="145.58"/>
	<rect x="2815.34" y="1892.6" class="st2" width="128.06" height="145.59"/>
	<rect x="2687.28" y="3785.19" class="st4" width="128.06" height="145.59"/>
	<rect x="2687.28" y="3639.61" class="st9" width="128.06" height="145.58"/>
	<rect x="2687.28" y="3494.03" class="st10" width="128.06" height="145.59"/>
	<rect x="2687.28" y="3348.45" class="st11" width="128.06" height="145.58"/>
	<rect x="2687.28" y="3202.86" class="st11" width="128.06" height="145.59"/>
	<rect x="2687.28" y="3057.28" class="st12" width="128.06" height="145.58"/>
	<rect x="2687.28" y="2911.67" class="st13" width="128.06" height="145.61"/>
	<rect x="2687.28" y="2766.09" class="st12" width="128.06" height="145.58"/>
	<rect x="2687.28" y="2620.51" class="st12" width="128.06" height="145.58"/>
	<rect x="2687.28" y="2474.92" class="st0" width="128.06" height="145.59"/>
	<rect x="2687.28" y="2329.34" class="st1" width="128.06" height="145.58"/>
	<rect x="2687.28" y="2183.76" class="st1" width="128.06" height="145.59"/>
	<rect x="2687.28" y="2038.18" class="st1" width="128.06" height="145.58"/>
	<rect x="2687.28" y="1892.6" class="st1" width="128.06" height="145.59"/>
	<rect x="2687.28" y="1747.02" class="st2" width="128.06" height="145.58"/>
	<rect x="2559.21" y="3930.78" class="st4" width="128.07" height="145.58"/>
	<rect x="2559.21" y="3785.19" class="st9" width="128.07" height="145.59"/>
	<rect x="2559.21" y="3639.61" class="st10" width="128.07" height="145.58"/>
	<rect x="2559.21" y="3494.03" class="st11" width="128.07" height="145.59"/>
	<rect x="2559.21" y="3348.45" class="st14" width="128.07" height="145.58"/>
	<rect x="2559.21" y="3202.86" class="st14" width="128.07" height="145.59"/>
	<rect x="2559.21" y="3057.28" class="st12" width="128.07" height="145.58"/>
	<rect x="2559.21" y="2911.67" class="st13" width="128.07" height="145.61"/>
	<rect x="2559.21" y="2766.09" class="st12" width="128.07" height="145.58"/>
	<rect x="2559.21" y="2620.51" class="st12" width="128.07" height="145.58"/>
	<rect x="2559.21" y="2474.92" class="st0" width="128.07" height="145.59"/>
	<rect x="2559.21" y="2329.34" class="st1" width="128.07" height="145.58"/>
	<rect x="2559.21" y="2183.76" class="st1" width="128.07" height="145.59"/>
	<rect x="2559.21" y="2038.18" class="st1" width="128.07" height="145.58"/>
	<rect x="2559.21" y="1892.6" class="st1" width="128.07" height="145.59"/>
	<rect x="2559.21" y="1747.02" class="st2" width="128.07" height="145.58"/>
	<rect x="2431.15" y="3785.19" class="st4" width="128.06" height="145.59"/>
	<rect x="2431.15" y="3639.61" class="st9" width="128.06" height="145.58"/>
	<rect x="2431.15" y="3494.03" class="st10" width="128.06" height="145.59"/>
	<rect x="2431.15" y="3348.45" class="st11" width="128.06" height="145.58"/>
	<rect x="2431.15" y="3202.86" class="st11" width="128.06" height="145.59"/>
	<rect x="2431.15" y="3057.28" class="st0" width="128.06" height="145.58"/>
	<rect x="2431.15" y="2911.67" class="st12" width="128.06" height="145.61"/>
	<rect x="2431.15" y="2766.09" class="st0" width="128.06" height="145.58"/>
	<rect x="2431.15" y="2620.51" class="st0" width="128.06" height="145.58"/>
	<rect x="2431.15" y="2474.92" class="st3" width="128.06" height="145.59"/>
	<rect x="2431.15" y="2329.34" class="st6" width="128.06" height="145.58"/>
	<rect x="2431.15" y="2183.76" class="st3" width="128.06" height="145.59"/>
	<rect x="2431.15" y="2038.18" class="st0" width="128.06" height="145.58"/>
	<rect x="2431.15" y="1892.6" class="st0" width="128.06" height="145.59"/>
	<rect x="2431.15" y="1747.02" class="st0" width="128.06" height="145.58"/>
	<rect x="2431.15" y="1601.43" class="st0" width="128.06" height="145.59"/>
	<rect x="2431.15" y="1455.85" class="st0" width="128.06" height="145.58"/>
	<rect x="2431.15" y="1310.27" class="st0" width="128.06" height="145.59"/>
	<rect x="2431.15" y="1164.69" class="st0" width="128.06" height="145.58"/>
	<rect x="2431.15" y="1019.1" class="st0" width="128.06" height="145.59"/>
	<rect x="2303.08" y="3639.61" class="st4" width="128.07" height="145.58"/>
	<rect x="2303.08" y="3494.03" class="st9" width="128.07" height="145.59"/>
	<rect x="2303.08" y="3348.45" class="st10" width="128.07" height="145.58"/>
	<rect x="2303.08" y="2911.67" class="st0" width="128.07" height="145.61"/>
	<rect x="2303.08" y="2766.09" class="st0" width="128.07" height="145.58"/>
	<rect x="2303.08" y="2620.51" class="st1" width="128.07" height="145.58"/>
	<rect x="2303.08" y="2474.92" class="st4" width="128.07" height="145.59"/>
	<rect x="2303.08" y="2329.34" class="st7" width="128.07" height="145.58"/>
	<rect x="2303.08" y="2183.76" class="st4" width="128.07" height="145.59"/>
	<rect x="2303.08" y="2038.18" class="st1" width="128.07" height="145.58"/>
	<rect x="2303.08" y="1892.6" class="st1" width="128.07" height="145.59"/>
	<rect x="2303.08" y="1747.02" class="st1" width="128.07" height="145.58"/>
	<rect x="2303.08" y="1601.43" class="st1" width="128.07" height="145.59"/>
	<rect x="2303.08" y="1455.85" class="st1" width="128.07" height="145.58"/>
	<rect x="2303.08" y="1310.27" class="st1" width="128.07" height="145.59"/>
	<rect x="2303.08" y="1164.69" class="st1" width="128.07" height="145.58"/>
	<rect x="2303.08" y="1019.1" class="st1" width="128.07" height="145.59"/>
	<rect x="2303.08" y="873.52" class="st0" width="128.07" height="145.58"/>
	<rect x="2303.08" y="727.94" class="st0" width="128.07" height="145.58"/>
	<rect x="2303.08" y="582.36" class="st0" width="128.07" height="145.59"/>
	<rect x="2175.02" y="3057.28" class="st0" width="128.06" height="145.58"/>
	<rect x="2175.02" y="2911.67" class="st1" width="128.06" height="145.61"/>
	<rect x="2175.02" y="2766.09" class="st1" width="128.06" height="145.58"/>
	<rect x="2175.02" y="2620.51" class="st4" width="128.06" height="145.58"/>
	<rect x="2175.02" y="2474.92" class="st7" width="128.06" height="145.59"/>
	<rect x="2175.02" y="2329.34" class="st4" width="128.06" height="145.58"/>
	<rect x="2175.02" y="2183.76" class="st1" width="128.06" height="145.59"/>
	<rect x="2175.02" y="2038.18" class="st1" width="128.06" height="145.58"/>
	<rect x="2175.02" y="1892.6" class="st15" width="128.06" height="145.59"/>
	<rect x="2175.02" y="1747.02" class="st15" width="128.06" height="145.58"/>
	<rect x="2175.02" y="1601.43" class="st15" width="128.06" height="145.59"/>
	<rect x="2175.02" y="1455.85" class="st15" width="128.06" height="145.58"/>
	<rect x="2175.02" y="1310.27" class="st15" width="128.06" height="145.59"/>
	<rect x="2175.02" y="1164.69" class="st15" width="128.06" height="145.58"/>
	<rect x="2175.02" y="1019.1" class="st1" width="128.06" height="145.59"/>
	<rect x="2175.02" y="873.52" class="st1" width="128.06" height="145.58"/>
	<rect x="2175.02" y="727.94" class="st1" width="128.06" height="145.58"/>
	<rect x="2175.02" y="582.36" class="st1" width="128.06" height="145.59"/>
	<rect x="2175.02" y="436.78" class="st0" width="128.06" height="145.58"/>
	<rect x="2175.02" y="291.19" class="st0" width="128.06" height="145.59"/>
	<rect x="2175.02" y="145.59" class="st0" width="128.06" height="145.61"/>
	<rect x="2046.95" y="3057.28" class="st1" width="128.07" height="145.58"/>
	<rect x="2046.95" y="2911.67" class="st1" width="128.07" height="145.61"/>
	<rect x="2046.95" y="2766.09" class="st1" width="128.07" height="145.58"/>
	<rect x="2046.95" y="2620.51" class="st4" width="128.07" height="145.58"/>
	<rect x="2046.95" y="2474.92" class="st7" width="128.07" height="145.59"/>
	<rect x="2046.95" y="2329.34" class="st4" width="128.07" height="145.58"/>
	<rect x="2046.95" y="2183.76" class="st1" width="128.07" height="145.59"/>
	<rect x="2046.95" y="2038.18" class="st15" width="128.07" height="145.58"/>
	<rect x="2046.95" y="1892.6" class="st6" width="128.07" height="145.59"/>
	<rect x="2046.95" y="1747.02" class="st6" width="128.07" height="145.58"/>
	<rect x="2046.95" y="1601.43" class="st6" width="128.07" height="145.59"/>
	<rect x="2046.95" y="1455.85" class="st6" width="128.07" height="145.58"/>
	<rect x="2046.95" y="1310.27" class="st7" width="128.07" height="145.59"/>
	<rect x="2046.95" y="1164.69" class="st8" width="128.07" height="145.58"/>
	<rect x="2046.95" y="1019.1" class="st15" width="128.07" height="145.59"/>
	<rect x="2046.95" y="873.52" class="st1" width="128.07" height="145.58"/>
	<rect x="2046.95" y="727.94" class="st1" width="128.07" height="145.58"/>
	<rect x="2046.95" y="582.36" class="st1" width="128.07" height="145.59"/>
	<rect x="2046.95" y="436.78" class="st1" width="128.07" height="145.58"/>
	<rect x="2046.95" y="291.19" class="st1" width="128.07" height="145.59"/>
	<rect x="2046.95" y="145.59" class="st1" width="128.07" height="145.61"/>
	<rect x="2046.95" class="st1" width="128.07" height="145.59"/>
	<rect x="1918.89" y="3057.28" class="st1" width="128.06" height="145.58"/>
	<rect x="1918.89" y="2911.67" class="st1" width="128.06" height="145.61"/>
	<rect x="1918.89" y="2766.09" class="st1" width="128.06" height="145.58"/>
	<rect x="1918.89" y="2620.51" class="st4" width="128.06" height="145.58"/>
	<rect x="1918.89" y="2474.92" class="st7" width="128.06" height="145.59"/>
	<rect x="1918.89" y="2329.34" class="st4" width="128.06" height="145.58"/>
	<rect x="1918.89" y="2183.76" class="st1" width="128.06" height="145.59"/>
	<rect x="1918.89" y="2038.18" class="st15" width="128.06" height="145.58"/>
	<rect x="1918.89" y="1892.6" class="st16" width="128.06" height="145.59"/>
	<rect x="1918.89" y="1747.02" class="st16" width="128.06" height="145.58"/>
	<rect x="1918.89" y="1601.43" class="st7" width="128.06" height="145.59"/>
	<rect x="1918.89" y="1455.85" class="st7" width="128.06" height="145.58"/>
	<rect x="1918.89" y="1310.27" class="st8" width="128.06" height="145.59"/>
	<rect x="1918.89" y="1164.69" class="st7" width="128.06" height="145.58"/>
	<rect x="1918.89" y="1019.1" class="st15" width="128.06" height="145.59"/>
	<rect x="1918.89" y="873.52" class="st1" width="128.06" height="145.58"/>
	<rect x="1918.89" y="727.94" class="st1" width="128.06" height="145.58"/>
	<rect x="1918.89" y="582.36" class="st1" width="128.06" height="145.59"/>
	<rect x="1918.89" y="436.78" class="st1" width="128.06" height="145.58"/>
	<rect x="1918.89" y="291.19" class="st1" width="128.06" height="145.59"/>
	<rect x="1918.89" y="145.59" class="st1" width="128.06" height="145.61"/>
	<rect x="1918.89" class="st2" width="128.06" height="145.59"/>
	<rect x="1790.82" y="3057.28" class="st2" width="128.07" height="145.58"/>
	<rect x="1790.82" y="2911.67" class="st1" width="128.07" height="145.61"/>
	<rect x="1790.82" y="2766.09" class="st1" width="128.07" height="145.58"/>
	<rect x="1790.82" y="2620.51" class="st4" width="128.07" height="145.58"/>
	<rect x="1790.82" y="2474.92" class="st7" width="128.07" height="145.59"/>
	<rect x="1790.82" y="2329.34" class="st4" width="128.07" height="145.58"/>
	<rect x="1790.82" y="2183.76" class="st1" width="128.07" height="145.59"/>
	<rect x="1790.82" y="2038.18" class="st1" width="128.07" height="145.58"/>
	<rect x="1790.82" y="1892.6" class="st15" width="128.07" height="145.59"/>
	<rect x="1790.82" y="1747.02" class="st15" width="128.07" height="145.58"/>
	<rect x="1790.82" y="1601.43" class="st15" width="128.07" height="145.59"/>
	<rect x="1790.82" y="1455.85" class="st15" width="128.07" height="145.58"/>
	<rect x="1790.82" y="1310.27" class="st15" width="128.07" height="145.59"/>
	<rect x="1790.82" y="1164.69" class="st15" width="128.07" height="145.58"/>
	<rect x="1790.82" y="1019.1" class="st1" width="128.07" height="145.59"/>
	<rect x="1790.82" y="873.52" class="st1" width="128.07" height="145.58"/>
	<rect x="1790.82" y="727.94" class="st1" width="128.07" height="145.58"/>
	<rect x="1790.82" y="582.36" class="st1" width="128.07" height="145.59"/>
	<rect x="1790.82" y="436.78" class="st2" width="128.07" height="145.58"/>
	<rect x="1790.82" y="291.19" class="st2" width="128.07" height="145.59"/>
	<rect x="1790.82" y="145.59" class="st2" width="128.07" height="145.61"/>
	<rect x="1662.76" y="3639.61" class="st4" width="128.06" height="145.58"/>
	<rect x="1662.76" y="3494.03" class="st9" width="128.06" height="145.59"/>
	<rect x="1662.76" y="3348.45" class="st10" width="128.06" height="145.58"/>
	<rect x="1662.76" y="2911.67" class="st2" width="128.06" height="145.61"/>
	<rect x="1662.76" y="2766.09" class="st1" width="128.06" height="145.58"/>
	<rect x="1662.76" y="2620.51" class="st1" width="128.06" height="145.58"/>
	<rect x="1662.76" y="2474.92" class="st4" width="128.06" height="145.59"/>
	<rect x="1662.76" y="2329.34" class="st7" width="128.06" height="145.58"/>
	<rect x="1662.76" y="2183.76" class="st4" width="128.06" height="145.59"/>
	<rect x="1662.76" y="2038.18" class="st1" width="128.06" height="145.58"/>
	<rect x="1662.76" y="1892.6" class="st1" width="128.06" height="145.59"/>
	<rect x="1662.76" y="1747.02" class="st1" width="128.06" height="145.58"/>
	<rect x="1662.76" y="1601.43" class="st1" width="128.06" height="145.59"/>
	<rect x="1662.76" y="1455.85" class="st1" width="128.06" height="145.58"/>
	<rect x="1662.76" y="1310.27" class="st1" width="128.06" height="145.59"/>
	<rect x="1662.76" y="1164.69" class="st1" width="128.06" height="145.58"/>
	<rect x="1662.76" y="1019.1" class="st1" width="128.06" height="145.59"/>
	<rect x="1662.76" y="873.52" class="st1" width="128.06" height="145.58"/>
	<rect x="1662.76" y="727.94" class="st2" width="128.06" height="145.58"/>
	<rect x="1662.76" y="582.36" class="st2" width="128.06" height="145.59"/>
	<rect x="1534.69" y="3785.19" class="st4" width="128.07" height="145.59"/>
	<rect x="1534.69" y="3639.61" class="st9" width="128.07" height="145.58"/>
	<rect x="1534.69" y="3494.03" class="st10" width="128.07" height="145.59"/>
	<rect x="1534.69" y="3348.45" class="st11" width="128.07" height="145.58"/>
	<rect x="1534.69" y="3202.86" class="st11" width="128.07" height="145.59"/>
	<rect x="1534.69" y="3057.28" class="st12" width="128.07" height="145.58"/>
	<rect x="1534.69" y="2911.67" class="st13" width="128.07" height="145.61"/>
	<rect x="1534.69" y="2766.09" class="st12" width="128.07" height="145.58"/>
	<rect x="1534.69" y="2620.51" class="st2" width="128.07" height="145.58"/>
	<rect x="1534.69" y="2474.92" class="st5" width="128.07" height="145.59"/>
	<rect x="1534.69" y="2329.34" class="st8" width="128.07" height="145.58"/>
	<rect x="1534.69" y="2183.76" class="st5" width="128.07" height="145.59"/>
	<rect x="1534.69" y="2038.18" class="st2" width="128.07" height="145.58"/>
	<rect x="1534.69" y="1892.6" class="st2" width="128.07" height="145.59"/>
	<rect x="1534.69" y="1747.02" class="st2" width="128.07" height="145.58"/>
	<rect x="1534.69" y="1601.43" class="st2" width="128.07" height="145.59"/>
	<rect x="1534.69" y="1455.85" class="st2" width="128.07" height="145.58"/>
	<rect x="1534.69" y="1310.27" class="st2" width="128.07" height="145.59"/>
	<rect x="1534.69" y="1164.69" class="st2" width="128.07" height="145.58"/>
	<rect x="1534.69" y="1019.1" class="st2" width="128.07" height="145.59"/>
	<rect x="1406.63" y="3930.78" class="st4" width="128.06" height="145.58"/>
	<rect x="1406.63" y="3785.19" class="st9" width="128.06" height="145.59"/>
	<rect x="1406.63" y="3639.61" class="st10" width="128.06" height="145.58"/>
	<rect x="1406.63" y="3494.03" class="st11" width="128.06" height="145.59"/>
	<rect x="1406.63" y="3348.45" class="st14" width="128.06" height="145.58"/>
	<rect x="1406.63" y="3202.86" class="st14" width="128.06" height="145.59"/>
	<rect x="1406.63" y="3057.28" class="st12" width="128.06" height="145.58"/>
	<rect x="1406.63" y="2911.67" class="st13" width="128.06" height="145.61"/>
	<rect x="1406.63" y="2766.09" class="st12" width="128.06" height="145.58"/>
	<rect x="1406.63" y="2620.51" class="st12" width="128.06" height="145.58"/>
	<rect x="1406.63" y="2474.92" class="st0" width="128.06" height="145.59"/>
	<rect x="1406.63" y="2329.34" class="st1" width="128.06" height="145.58"/>
	<rect x="1406.63" y="2183.76" class="st1" width="128.06" height="145.59"/>
	<rect x="1406.63" y="2038.18" class="st1" width="128.06" height="145.58"/>
	<rect x="1406.63" y="1892.6" class="st1" width="128.06" height="145.59"/>
	<rect x="1406.63" y="1747.02" class="st2" width="128.06" height="145.58"/>
	<rect x="1278.57" y="3785.19" class="st4" width="128.07" height="145.59"/>
	<rect x="1278.57" y="3639.61" class="st9" width="128.07" height="145.58"/>
	<rect x="1278.57" y="3494.03" class="st10" width="128.07" height="145.59"/>
	<rect x="1278.57" y="3348.45" class="st11" width="128.07" height="145.58"/>
	<rect x="1278.57" y="3202.86" class="st11" width="128.07" height="145.59"/>
	<rect x="1278.57" y="3057.28" class="st0" width="128.07" height="145.58"/>
	<rect x="1278.57" y="2911.67" class="st12" width="128.07" height="145.61"/>
	<rect x="1278.57" y="2766.09" class="st0" width="128.07" height="145.58"/>
	<rect x="1278.57" y="2620.51" class="st0" width="128.07" height="145.58"/>
	<rect x="1278.57" y="2474.92" class="st0" width="128.07" height="145.59"/>
	<rect x="1278.57" y="2329.34" class="st1" width="128.07" height="145.58"/>
	<rect x="1278.57" y="2183.76" class="st1" width="128.07" height="145.59"/>
	<rect x="1278.57" y="2038.18" class="st1" width="128.07" height="145.58"/>
	<rect x="1278.57" y="1892.6" class="st1" width="128.07" height="145.59"/>
	<rect x="1278.57" y="1747.02" class="st2" width="128.07" height="145.58"/>
	<rect x="1150.5" y="3639.61" class="st4" width="128.06" height="145.58"/>
	<rect x="1150.5" y="3494.03" class="st9" width="128.06" height="145.59"/>
	<rect x="1150.5" y="3348.45" class="st10" width="128.06" height="145.58"/>
	<rect x="1150.5" y="2474.92" class="st0" width="128.06" height="145.59"/>
	<rect x="1150.5" y="2329.34" class="st1" width="128.06" height="145.58"/>
	<rect x="1150.5" y="2183.76" class="st1" width="128.06" height="145.59"/>
	<rect x="1150.5" y="2038.18" class="st1" width="128.06" height="145.58"/>
	<rect x="1150.5" y="1892.6" class="st2" width="128.06" height="145.59"/>
	<rect x="1022.44" y="2474.92" class="st0" width="128.06" height="145.59"/>
	<rect x="1022.44" y="2329.34" class="st1" width="128.06" height="145.58"/>
	<rect x="1022.44" y="2183.76" class="st1" width="128.06" height="145.59"/>
	<rect x="1022.44" y="2038.18" class="st1" width="128.06" height="145.58"/>
	<rect x="1022.44" y="1892.6" class="st2" width="128.06" height="145.59"/>
	<rect x="894.38" y="2474.92" class="st3" width="128.07" height="145.59"/>
	<rect x="894.38" y="2329.34" class="st4" width="128.07" height="145.58"/>
	<rect x="894.38" y="2183.76" class="st4" width="128.07" height="145.59"/>
	<rect x="894.38" y="2038.18" class="st4" width="128.07" height="145.58"/>
	<rect x="894.38" y="1892.6" class="st5" width="128.07" height="145.59"/>
	<rect x="766.31" y="2474.92" class="st6" width="128.06" height="145.59"/>
	<rect x="766.31" y="2329.34" class="st7" width="128.06" height="145.58"/>
	<rect x="766.31" y="2183.76" class="st7" width="128.06" height="145.59"/>
	<rect x="766.31" y="2038.18" class="st8" width="128.06" height="145.58"/>
	<rect x="638.22" y="2474.92" class="st3" width="128.09" height="145.59"/>
	<rect x="638.22" y="2329.34" class="st4" width="128.09" height="145.58"/>
	<rect x="638.22" y="2183.76" class="st4" width="128.09" height="145.59"/>
	<rect x="638.22" y="2038.18" class="st5" width="128.09" height="145.58"/>
	<rect x="510.19" y="2474.92" class="st0" width="128.04" height="145.59"/>
	<rect x="510.19" y="2329.34" class="st1" width="128.04" height="145.58"/>
	<rect x="510.19" y="2183.76" class="st1" width="128.04" height="145.59"/>
	<rect x="510.19" y="2038.18" class="st2" width="128.04" height="145.58"/>
	<rect x="382.09" y="2474.92" class="st0" width="128.09" height="145.59"/>
	<rect x="382.09" y="2329.34" class="st1" width="128.09" height="145.58"/>
	<rect x="382.09" y="2183.76" class="st1" width="128.09" height="145.59"/>
	<rect x="254.03" y="2620.51" class="st0" width="128.06" height="145.58"/>
	<rect x="254.03" y="2474.92" class="st0" width="128.06" height="145.59"/>
	<rect x="254.03" y="2329.34" class="st0" width="128.06" height="145.58"/>
	<rect x="254.03" y="2183.76" class="st0" width="128.06" height="145.59"/>
	<rect x="254.03" y="2038.18" class="st0" width="128.06" height="145.58"/>
	<rect x="254.03" y="1892.6" class="st0" width="128.06" height="145.59"/>
	<rect x="254.03" y="1747.02" class="st0" width="128.06" height="145.58"/>
	<rect x="254.03" y="1601.43" class="st0" width="128.06" height="145.59"/>
	<rect x="125.96" y="2766.09" class="st0" width="128.07" height="145.58"/>
	<rect x="125.96" y="2620.51" class="st1" width="128.07" height="145.58"/>
	<rect x="125.96" y="2474.92" class="st1" width="128.07" height="145.59"/>
	<rect x="125.96" y="2329.34" class="st1" width="128.07" height="145.58"/>
	<rect x="125.96" y="2183.76" class="st1" width="128.07" height="145.59"/>
	<rect x="125.96" y="2038.18" class="st1" width="128.07" height="145.58"/>
	<rect x="125.96" y="1892.6" class="st1" width="128.07" height="145.59"/>
	<rect x="125.96" y="1747.02" class="st1" width="128.07" height="145.58"/>
	<rect x="125.96" y="1601.43" class="st1" width="128.07" height="145.59"/>
	<rect x="125.96" y="1455.85" class="st1" width="128.07" height="145.58"/>
	<rect x="125.96" y="1310.27" class="st1" width="128.07" height="145.59"/>
	<rect x="125.96" y="1164.69" class="st1" width="128.07" height="145.58"/>
	<rect x="125.96" y="1019.1" class="st1" width="128.07" height="145.59"/>
	<rect x="125.96" y="873.52" class="st1" width="128.07" height="145.58"/>
	<rect x="125.96" y="727.94" class="st0" width="128.07" height="145.58"/>
	<rect x="-2.1" y="2620.51" class="st2" width="128.06" height="145.58"/>
	<rect x="-2.1" y="2474.92" class="st2" width="128.06" height="145.59"/>
	<rect x="-2.1" y="2329.34" class="st2" width="128.06" height="145.58"/>
	<rect x="-2.1" y="2183.76" class="st2" width="128.06" height="145.59"/>
	<rect x="-2.1" y="2038.18" class="st2" width="128.06" height="145.58"/>
	<rect x="-2.1" y="1892.6" class="st2" width="128.06" height="145.59"/>
	<rect x="-2.1" y="1747.02" class="st2" width="128.06" height="145.58"/>
	<rect x="-2.1" y="1601.43" class="st2" width="128.06" height="145.59"/>
</g>
</svg>
